<?xml version="1.0" standalone="no"?>
<!DOCTYPE svg PUBLIC "-//W3C//DTD SVG 20010904//EN"
 "http://www.w3.org/TR/2001/REC-SVG-20010904/DTD/svg10.dtd">
<svg version="1.0" xmlns="http://www.w3.org/2000/svg"
 width="507.000000pt" height="514.000000pt" viewBox="0 0 507.000000 514.000000"
 preserveAspectRatio="xMidYMid meet">

<g transform="translate(0.000000,514.000000) scale(0.100000,-0.100000)"
fill="#000000" stroke="none">
<path d="M0 2570 l0 -2570 2535 0 2535 0 0 2570 0 2570 -2535 0 -2535 0 0
-2570z m2855 1105 c117 -30 221 -90 310 -179 93 -92 143 -179 170 -293 21 -88
17 -340 -8 -443 -22 -92 -60 -487 -55 -581 2 -64 1 -78 -11 -74 -11 4 -12 -7
-6 -62 6 -59 5 -66 -8 -55 -12 10 -16 5 -26 -32 -8 -32 -15 -44 -25 -40 -9 3
-16 -4 -20 -22 -4 -14 -10 -24 -13 -21 -9 9 18 108 28 101 5 -3 9 13 9 35 0
32 3 39 15 35 12 -5 15 4 17 47 1 30 1 77 0 106 -2 28 4 91 12 140 26 144 23
149 -35 58 -28 -44 -78 -113 -111 -154 -59 -74 -108 -157 -108 -186 0 -19 -24
-20 -39 -1 -6 7 -42 27 -81 45 l-69 32 16 34 c9 19 14 37 10 41 -15 15 -78 7
-106 -14 -37 -27 -65 -28 -99 -3 -40 28 -68 33 -94 19 -13 -7 -24 -14 -26 -15
-2 0 4 -15 12 -31 l16 -30 -93 -50 -92 -49 -6 31 c-8 46 -35 93 -102 176 -33
41 -83 111 -111 154 -59 91 -68 82 -42 -37 10 -43 16 -122 17 -195 0 -103 3
-123 15 -118 10 4 14 -3 14 -29 0 -31 19 -63 20 -33 1 7 12 -27 25 -77 13 -49
22 -91 20 -93 -1 -2 -13 22 -25 52 -13 30 -27 53 -31 50 -10 -6 -21 12 -29 50
-5 23 -11 30 -24 28 -17 -3 -18 2 -11 53 5 44 4 55 -5 50 -10 -6 -11 8 -5 60
8 74 -17 326 -61 610 -57 372 -17 552 161 730 107 107 208 161 360 191 85 16
244 11 330 -11z m588 -459 c7 -18 -1 -26 -25 -26 -11 0 -18 7 -18 20 0 23 35
28 43 6z m57 -1 c0 -8 -7 -15 -15 -15 -16 0 -20 12 -8 23 11 12 23 8 23 -8z
m-1570 -69 c0 -8 -5 -18 -11 -22 -14 -8 -33 11 -25 25 10 16 36 13 36 -3z
m1515 -11 c0 -30 -39 -27 -43 3 -3 20 0 23 20 20 15 -2 23 -10 23 -23z m63 3
c-2 -13 -10 -23 -18 -23 -8 0 -16 10 -18 23 -3 17 2 22 18 22 16 0 21 -5 18
-22z m67 2 c0 -7 -6 -15 -12 -17 -8 -3 -13 4 -13 17 0 13 5 20 13 18 6 -3 12
-11 12 -18z m-1785 -81 c0 -20 -24 -26 -35 -9 -8 13 14 42 26 34 5 -3 9 -14 9
-25z m1658 3 c3 -20 0 -23 -20 -20 -15 2 -24 11 -26 26 -3 20 0 23 20 20 15
-2 24 -11 26 -26z m62 13 c15 -17 5 -35 -20 -35 -22 0 -33 23 -17 39 15 15 22
14 37 -4z m-1790 -11 c0 -8 -5 -12 -10 -9 -6 4 -8 11 -5 16 9 14 15 11 15 -7z
m145 -4 c0 -22 -39 -19 -43 3 -3 15 1 18 20 15 12 -2 23 -10 23 -18z m65 0 c0
-13 -7 -20 -19 -20 -22 0 -35 15 -26 30 12 19 45 11 45 -10z m1655 0 c0 -8
-10 -16 -22 -18 -18 -3 -23 2 -23 18 0 16 5 21 23 18 12 -2 22 -10 22 -18z
m65 0 c0 -13 -7 -20 -20 -20 -13 0 -20 7 -20 20 0 13 7 20 20 20 13 0 20 -7
20 -20z m64 -1 c-3 -5 -10 -7 -15 -3 -5 3 -7 10 -3 15 3 5 10 7 15 3 5 -3 7
-10 3 -15z m-1918 -78 c-10 -16 -36 -13 -43 5 -8 22 18 37 36 20 7 -8 10 -19
7 -25z m1724 3 c0 -22 -29 -29 -47 -11 -13 13 -14 19 -4 31 16 19 51 5 51 -20z
m70 0 c0 -16 -45 -19 -55 -5 -3 5 2 17 11 26 12 12 19 13 30 4 8 -6 14 -18 14
-25z m66 -3 c-10 -16 -36 -13 -43 5 -8 22 18 37 36 20 7 -8 10 -19 7 -25z
m-2146 14 c0 -8 -4 -15 -10 -15 -5 0 -10 7 -10 15 0 8 5 15 10 15 6 0 10 -7
10 -15z m71 -8 c-13 -13 -26 -3 -16 12 3 6 11 8 17 5 6 -4 6 -10 -1 -17z m74
14 c7 -12 -12 -24 -25 -16 -11 7 -4 25 10 25 5 0 11 -4 15 -9z m73 -8 c-5 -26
-38 -29 -38 -4 0 15 6 21 21 21 14 0 19 -5 17 -17z m140 -5 c3 -13 -3 -18 -22
-18 -20 0 -26 5 -26 21 0 15 5 20 22 17 13 -2 24 -11 26 -20z m62 4 c0 -26
-10 -33 -31 -21 -22 12 -14 39 12 39 12 0 19 -7 19 -18z m1518 -4 c-2 -15 -10
-23 -23 -23 -13 0 -21 8 -23 23 -3 18 1 22 23 22 22 0 26 -4 23 -22z m272 8
c0 -20 -19 -31 -32 -18 -6 6 -7 15 -4 21 10 16 36 13 36 -3z m65 4 c3 -6 -1
-13 -10 -16 -19 -8 -30 0 -20 15 8 14 22 14 30 1z m70 1 c7 -12 -12 -24 -25
-16 -11 7 -4 25 10 25 5 0 11 -4 15 -9z m-2125 -87 c0 -16 -36 -19 -45 -4 -4
6 -1 17 5 26 14 16 40 2 40 -22z m59 -10 c-14 -14 -17 -14 -29 0 -10 13 -10
19 0 32 12 14 15 14 29 0 14 -15 14 -17 0 -32z m1791 31 c25 -30 -10 -61 -38
-33 -7 7 -8 17 -1 30 12 22 23 23 39 3z m-2130 -16 c0 -5 -4 -9 -10 -9 -5 0
-10 7 -10 16 0 8 5 12 10 9 6 -3 10 -10 10 -16z m68 3 c2 -7 -3 -12 -12 -12
-9 0 -16 7 -16 16 0 17 22 14 28 -4z m72 3 c0 -8 -9 -15 -20 -15 -20 0 -26 11
-13 23 12 13 33 7 33 -8z m65 -5 c0 -22 -29 -18 -33 3 -3 14 1 18 15 15 10 -2
18 -10 18 -18z m210 -5 c0 -30 -39 -27 -43 3 -3 20 0 23 20 20 15 -2 23 -10
23 -23z m65 0 c0 -18 -5 -25 -19 -25 -23 0 -34 23 -18 39 19 19 37 12 37 -14z
m1518 1 c2 -10 -3 -23 -12 -28 -14 -8 -14 -10 2 -26 16 -17 18 -17 32 1 13 16
17 16 34 4 29 -21 14 -47 -26 -45 -18 1 -46 -2 -62 -7 l-29 -8 6 48 c4 26 7
56 7 67 0 26 43 21 48 -6z m67 -1 c0 -22 -31 -33 -47 -17 -17 17 -1 44 24 40
15 -2 23 -10 23 -23z m143 3 c3 -13 -3 -18 -22 -18 -20 0 -26 5 -26 21 0 15 5
20 22 17 13 -2 24 -11 26 -20z m62 2 c0 -21 -24 -28 -35 -10 -8 14 3 30 21 30
8 0 14 -9 14 -20z m70 5 c0 -8 -9 -15 -20 -15 -11 0 -20 7 -20 15 0 8 9 15 20
15 11 0 20 -7 20 -15z m60 0 c0 -8 -7 -15 -15 -15 -8 0 -15 7 -15 15 0 8 7 15
15 15 8 0 15 -7 15 -15z m70 0 c0 -8 -4 -15 -10 -15 -5 0 -10 7 -10 15 0 8 5
15 10 15 6 0 10 -7 10 -15z m70 0 c0 -8 -4 -15 -9 -15 -13 0 -22 16 -14 24 11
11 23 6 23 -9z m-2260 -75 c0 -20 -17 -30 -37 -22 -16 5 -17 24 -2 39 16 16
39 5 39 -17z m70 -5 c0 -15 -27 -28 -41 -19 -13 8 -11 42 4 47 15 5 37 -11 37
-28z m1780 20 c25 -30 -10 -61 -38 -33 -7 7 -8 17 -1 30 12 22 23 23 39 3z
m70 -1 c11 -12 10 -18 -3 -32 -16 -15 -18 -15 -34 0 -13 14 -14 20 -3 32 7 9
16 16 20 16 4 0 13 -7 20 -16z m70 -15 c0 -12 -7 -19 -20 -19 -22 0 -29 35 -7
43 18 6 27 -2 27 -24z m68 3 c3 -17 -2 -22 -17 -22 -14 0 -21 6 -21 18 0 38
33 41 38 4z m-2413 9 c3 -5 1 -12 -5 -16 -5 -3 -10 1 -10 9 0 18 6 21 15 7z
m73 -9 c2 -7 -3 -12 -12 -12 -9 0 -16 7 -16 16 0 17 22 14 28 -4z m68 7 c10
-17 -13 -36 -27 -22 -12 12 -4 33 11 33 5 0 12 -5 16 -11z m74 -9 c0 -13 -7
-20 -20 -20 -13 0 -20 7 -20 20 0 13 7 20 20 20 13 0 20 -7 20 -20z m70 0 c0
-13 -7 -20 -20 -20 -13 0 -20 7 -20 20 0 13 7 20 20 20 13 0 20 -7 20 -20z
m208 8 c10 -10 15 -10 21 1 12 20 46 9 49 -16 3 -20 -1 -22 -50 -21 -58 1 -80
11 -71 34 6 17 35 18 51 2z m1990 -5 c-5 -26 -38 -29 -38 -4 0 15 6 21 21 21
14 0 19 -5 17 -17z m68 6 c7 -12 -15 -31 -28 -23 -4 3 -8 12 -8 20 0 17 26 19
36 3z m64 -3 c0 -8 -4 -17 -9 -21 -12 -7 -24 12 -16 25 9 15 25 12 25 -4z m68
-4 c2 -7 -3 -12 -12 -12 -9 0 -16 7 -16 16 0 17 22 14 28 -4z m62 -2 c0 -5 -4
-10 -10 -10 -5 0 -10 5 -10 10 0 6 5 10 10 10 6 0 10 -4 10 -10z m-2530 -71
c0 -12 -7 -19 -18 -19 -26 0 -33 10 -21 31 12 22 39 14 39 -12z m70 1 c0 -24
-25 -33 -40 -14 -10 11 -10 17 0 28 15 19 40 10 40 -14z m67 -14 c-8 -20 -36
-21 -43 -1 -4 8 0 22 7 31 11 13 14 13 27 0 8 -8 12 -22 9 -30z m73 9 c0 -15
-27 -28 -41 -19 -13 8 -11 42 4 47 15 5 37 -11 37 -28z m1784 12 c17 -26 -8
-46 -36 -28 -17 11 -22 11 -29 -1 -6 -10 -11 -9 -23 7 -9 11 -16 23 -16 28 0
11 25 8 39 -5 10 -11 14 -9 22 5 12 21 28 18 43 -6z m70 0 c8 -13 7 -20 -4
-27 -35 -22 -65 5 -40 35 15 18 29 15 44 -8z m70 -2 c6 -16 -19 -39 -34 -30
-11 7 -14 38 -4 48 9 8 32 -2 38 -18z m66 9 c11 -12 10 -18 -3 -32 -16 -15
-18 -15 -34 0 -13 14 -14 20 -3 32 7 9 16 16 20 16 4 0 13 -7 20 -16z m-2415
-24 c-5 -8 -11 -8 -17 -2 -6 6 -7 16 -3 22 5 8 11 8 17 2 6 -6 7 -16 3 -22z
m73 7 c2 -10 -3 -17 -12 -17 -18 0 -29 16 -21 31 9 14 29 6 33 -14z m70 0 c2
-12 -3 -17 -17 -17 -12 0 -21 6 -21 13 0 31 32 34 38 4z m332 15 c0 -5 -6 -16
-13 -27 -16 -20 -33 -5 -23 20 6 16 36 21 36 7z m2010 -11 c0 -27 -19 -36 -37
-18 -18 18 -9 37 18 37 12 0 19 -7 19 -19z m68 2 c5 -17 -26 -29 -40 -15 -6 6
-7 15 -3 22 9 14 37 9 43 -7z m65 3 c7 -16 -1 -26 -20 -26 -7 0 -13 9 -13 20
0 23 25 27 33 6z m64 -1 c7 -20 -2 -29 -21 -22 -9 4 -13 13 -10 22 8 19 23 19
31 0z m63 -5 c0 -5 -4 -10 -10 -10 -5 0 -10 5 -10 10 0 6 5 10 10 10 6 0 10
-4 10 -10z m-2171 -36 c25 -21 31 -33 31 -67 l0 -41 -55 54 c-42 41 -52 57
-43 67 16 19 33 16 67 -13z m1500 12 c9 -11 2 -24 -38 -65 -27 -28 -52 -51
-55 -51 -3 0 -6 18 -6 39 0 33 6 44 33 65 37 29 50 32 66 12z m-1923 -55 c-4
-6 -16 -11 -27 -11 -21 0 -27 35 -6 43 16 6 41 -18 33 -32z m67 3 c-6 -16 -39
-19 -48 -5 -3 5 2 17 11 26 19 18 47 3 37 -21z m65 8 c3 -16 -2 -22 -17 -22
-26 0 -36 17 -20 36 16 19 33 13 37 -14z m70 3 c4 -20 -15 -36 -35 -28 -16 6
-17 25 -1 41 16 16 32 10 36 -13z m69 9 c4 -12 7 -13 14 -3 10 16 14 12 24
-21 6 -20 5 -23 -5 -13 -8 7 -25 9 -42 6 -34 -7 -54 13 -36 34 14 18 37 16 45
-3z m1788 6 c4 -7 12 -7 25 0 37 20 67 -13 36 -39 -11 -9 -20 -9 -34 -2 -13 7
-22 7 -31 -2 -9 -9 -16 -8 -32 2 -14 8 -25 9 -31 3 -17 -17 1 -32 31 -26 16 3
32 1 35 -5 5 -7 12 -7 25 1 10 6 26 8 35 5 17 -7 22 -42 6 -52 -6 -4 -5 -13 3
-25 9 -15 9 -24 0 -39 -16 -25 2 -44 27 -29 24 15 50 3 50 -22 0 -26 -27 -37
-52 -21 -15 9 -20 8 -25 -4 -9 -25 13 -41 32 -25 13 11 19 11 32 -3 13 -13 14
-21 6 -39 -7 -16 -7 -28 1 -40 8 -13 8 -23 -1 -38 -8 -12 -9 -21 -3 -25 15
-10 12 -45 -5 -51 -13 -5 -13 -9 -3 -22 15 -18 20 -109 7 -118 -6 -3 -5 -11 2
-20 9 -11 9 -21 1 -39 -6 -13 -8 -27 -3 -29 11 -7 11 -95 0 -101 -5 -3 -3 -15
4 -25 9 -16 9 -24 0 -40 -8 -12 -9 -21 -3 -25 16 -10 11 -45 -6 -52 -9 -3 -25
-1 -34 5 -14 9 -20 8 -24 -5 -9 -23 9 -39 27 -24 8 6 22 9 31 5 18 -7 22 -39
6 -49 -8 -5 -7 -11 1 -21 9 -11 9 -21 1 -38 -7 -17 -7 -27 1 -35 7 -7 7 -17 0
-34 -7 -16 -8 -29 -1 -41 8 -13 6 -22 -5 -34 -14 -14 -14 -17 -1 -26 19 -15 8
-46 -16 -46 -22 0 -34 28 -19 46 9 11 8 18 -2 30 -10 12 -10 20 -1 35 8 13 9
25 3 37 -6 10 -6 24 -1 32 5 8 4 22 -1 33 -7 13 -7 23 2 33 9 11 9 17 -1 29
-20 24 -27 2 -24 -70 2 -36 -1 -67 -6 -70 -6 -4 -4 -14 3 -25 9 -16 9 -24 -1
-40 -7 -12 -8 -20 -2 -20 15 0 12 -36 -3 -49 -10 -8 -19 -7 -33 4 -16 11 -17
17 -7 34 10 15 9 22 -1 30 -19 16 -41 -10 -24 -27 18 -18 1 -26 -29 -13 -15 6
-41 32 -58 56 -21 32 -38 45 -61 50 -26 4 -35 13 -44 39 -6 19 -42 84 -80 145
-58 93 -67 115 -61 138 4 16 13 29 19 29 7 1 19 2 28 3 13 1 15 9 9 51 -6 42
-4 50 9 50 9 0 16 3 16 8 0 4 -5 47 -10 95 l-9 88 41 37 c22 20 52 57 66 82
18 31 32 45 42 42 12 -4 13 -3 2 10 -13 16 -8 65 19 218 6 30 13 69 16 87 3
22 12 33 27 36 39 8 55 7 61 -3z m135 -5 c15 -18 5 -35 -21 -35 -12 0 -19 7
-19 18 0 33 20 42 40 17z m67 4 c16 -16 5 -39 -17 -39 -23 0 -32 13 -24 34 7
19 25 21 41 5z m71 -17 c3 -16 -2 -22 -17 -22 -26 0 -36 17 -20 36 16 19 33
13 37 -14z m142 -4 c0 -15 -32 -21 -40 -7 -13 20 9 43 26 28 8 -6 14 -16 14
-21z m-2620 7 c0 -8 -7 -15 -15 -15 -8 0 -15 7 -15 15 0 8 7 15 15 15 8 0 15
-7 15 -15z m78 -2 c5 -17 -26 -29 -40 -15 -6 6 -7 15 -3 22 9 14 37 9 43 -7z
m2472 2 c0 -9 -7 -18 -16 -22 -18 -7 -39 11 -30 26 11 17 46 13 46 -4z m138
-2 c5 -17 -26 -29 -40 -15 -6 6 -7 15 -3 22 9 14 37 9 43 -7z m62 -4 c0 -5 -7
-9 -15 -9 -15 0 -20 12 -9 23 8 8 24 -1 24 -14z m-2820 7 c0 -11 -19 -15 -25
-6 -3 5 1 10 9 10 9 0 16 -2 16 -4z m2880 -6 c0 -5 -4 -10 -10 -10 -5 0 -10 5
-10 10 0 6 5 10 10 10 6 0 10 -4 10 -10z m-2673 -51 c16 -16 5 -39 -18 -39
-12 0 -19 7 -19 18 0 31 17 41 37 21z m73 -4 c15 -18 5 -35 -20 -35 -10 0 -22
5 -25 10 -7 11 12 40 25 40 4 0 13 -7 20 -15z m68 -14 c-2 -9 -11 -17 -21 -19
-21 -4 -35 27 -17 38 19 12 42 0 38 -19z m70 5 c4 -21 -14 -37 -35 -29 -14 5
-18 35 -6 47 12 12 38 1 41 -18z m56 18 c21 -8 20 -40 -1 -48 -9 -4 -23 0 -31
8 -13 12 -13 18 -2 30 14 18 13 18 34 10z m66 -30 c0 -28 -17 -28 -34 -1 -8
13 -7 20 4 27 20 12 30 3 30 -26z m1870 26 c18 -11 3 -43 -23 -48 -20 -4 -34
38 -16 49 18 11 21 11 39 -1z m70 -6 c11 -12 11 -18 -2 -30 -18 -18 -48 -8
-48 15 0 33 28 42 50 15z m74 -18 c-8 -22 -31 -27 -44 -10 -10 11 -10 17 0 29
15 18 52 2 44 -19z m66 3 c0 -12 -7 -19 -19 -19 -26 0 -36 17 -21 35 15 18 40
8 40 -16z m-2552 4 c-4 -22 -22 -20 -26 1 -2 10 3 16 13 16 10 0 15 -7 13 -17z
m75 11 c9 -10 -4 -34 -18 -34 -17 0 -28 17 -20 30 7 11 28 13 38 4z m2545 -11
c5 -17 -26 -29 -40 -15 -6 6 -7 15 -3 22 9 14 37 9 43 -7z m70 0 c5 -17 -26
-29 -40 -15 -6 6 -7 15 -3 22 9 14 37 9 43 -7z m62 -4 c0 -5 -7 -9 -15 -9 -15
0 -20 12 -9 23 8 8 24 -1 24 -14z m-2820 1 c0 -5 -4 -10 -10 -10 -5 0 -10 5
-10 10 0 6 5 10 10 10 6 0 10 -4 10 -10z m2880 0 c0 -5 -4 -10 -10 -10 -5 0
-10 5 -10 10 0 6 5 10 10 10 6 0 10 -4 10 -10z m-2810 -65 c0 -8 -5 -17 -11
-21 -16 -9 -30 18 -17 33 12 15 28 8 28 -12z m73 12 c8 -20 -9 -41 -27 -34
-19 8 -21 33 -3 40 20 9 25 8 30 -6z m64 2 c14 -14 6 -39 -12 -39 -18 0 -28
17 -21 35 6 18 18 19 33 4z m70 0 c16 -16 5 -39 -17 -39 -25 0 -35 18 -20 35
15 18 22 19 37 4z m71 -17 c3 -16 -2 -22 -17 -22 -24 0 -35 15 -27 36 9 23 40
13 44 -14z m70 4 c5 -24 -17 -37 -40 -25 -15 8 -16 14 -7 30 13 24 42 21 47
-5z m70 -2 c4 -26 -26 -40 -45 -21 -8 7 -11 21 -7 31 9 24 48 17 52 -10z m60
-7 c4 -30 -17 -37 -38 -12 -10 12 -10 18 0 30 18 22 34 14 38 -18z m1866 16
c4 -9 0 -23 -9 -32 -13 -14 -17 -14 -31 1 -9 9 -14 24 -11 32 8 21 43 20 51
-1z m60 11 c22 -8 20 -31 -2 -43 -13 -7 -23 -6 -30 1 -16 16 -15 35 1 41 6 3
13 6 14 6 1 1 8 -2 17 -5z m74 -22 c3 -16 -2 -22 -17 -22 -24 0 -35 15 -27 36
9 23 40 13 44 -14z m71 15 c8 -10 7 -17 -1 -25 -26 -26 -60 -4 -38 23 15 18
24 19 39 2z m67 -26 c-10 -16 -36 -13 -43 5 -8 22 18 37 36 20 7 -8 10 -19 7
-25z m-2686 14 c0 -8 -4 -15 -9 -15 -13 0 -22 16 -14 24 11 11 23 6 23 -9z
m2758 -2 c5 -17 -26 -29 -40 -15 -6 6 -7 15 -3 22 9 14 37 9 43 -7z m57 -1 c0
-18 -20 -15 -23 4 -3 10 1 15 10 12 7 -3 13 -10 13 -16z m-2885 4 c0 -3 -4 -8
-10 -11 -5 -3 -10 -1 -10 4 0 6 5 11 10 11 6 0 10 -2 10 -4z m2950 -6 c0 -5
-2 -10 -4 -10 -3 0 -8 5 -11 10 -3 6 -1 10 4 10 6 0 11 -4 11 -10z m-2734 -79
c-10 -15 -46 -14 -46 2 0 7 5 18 12 25 10 10 15 9 26 -2 8 -8 11 -19 8 -25z
m62 11 c3 -17 -2 -22 -17 -22 -14 0 -21 6 -21 18 0 38 33 41 38 4z m73 12 c11
-14 10 -18 -5 -29 -33 -24 -62 5 -34 33 16 16 23 15 39 -4z m67 4 c8 -8 15 -8
26 2 21 16 46 6 46 -20 0 -27 -26 -36 -48 -17 -15 13 -19 13 -31 0 -12 -13
-15 -13 -29 1 -13 12 -13 18 -2 30 15 19 22 20 38 4z m139 1 c8 -8 17 -7 32 3
18 11 23 11 31 -2 6 -8 9 -24 8 -35 -1 -11 2 -30 6 -43 5 -14 3 -28 -4 -37
-14 -16 -4 -39 14 -32 7 3 26 -18 44 -48 18 -29 46 -65 62 -79 30 -25 30 -25
24 -108 -3 -45 -8 -86 -10 -90 -3 -5 2 -11 10 -14 12 -5 16 -20 16 -60 0 -50
2 -54 24 -54 17 0 26 -7 30 -26 5 -20 -4 -42 -42 -102 -27 -43 -64 -104 -81
-137 -34 -64 -55 -87 -76 -79 -7 3 -22 -10 -35 -31 -13 -21 -29 -34 -38 -33
-10 2 -17 -4 -17 -12 0 -15 -23 -39 -37 -40 -5 0 -8 7 -8 15 0 8 5 15 12 15 8
0 6 6 -5 17 -16 16 -18 16 -34 0 -11 -11 -13 -17 -5 -17 18 0 14 -40 -4 -47
-9 -3 -25 -1 -35 6 -12 7 -19 7 -19 1 0 -16 -40 -12 -46 5 -4 8 -1 22 6 30 10
12 10 18 0 30 -7 8 -10 22 -6 30 7 18 43 20 48 3 3 -9 9 -8 21 4 12 11 14 19
6 24 -6 4 -8 20 -5 39 7 37 -7 54 -29 35 -12 -10 -18 -10 -30 0 -8 7 -15 18
-15 25 0 18 30 27 46 14 13 -10 34 -5 34 9 0 4 -4 13 -9 21 -8 12 -12 12 -25
2 -21 -17 -46 -7 -46 19 0 26 22 35 49 20 17 -9 22 -8 27 5 10 24 -11 41 -30
25 -20 -16 -46 -6 -46 19 0 24 28 35 47 20 11 -10 17 -9 29 3 13 13 13 16 0
28 -13 10 -19 10 -32 0 -12 -11 -18 -10 -31 3 -12 12 -20 13 -33 5 -10 -6 -25
-8 -34 -5 -18 7 -22 47 -5 47 8 0 7 5 -2 16 -10 12 -10 20 -2 34 8 12 8 21 1
28 -14 14 -3 42 15 42 23 0 42 -29 29 -42 -9 -9 -9 -15 0 -25 8 -10 7 -18 -5
-31 -13 -15 -13 -19 -1 -30 21 -19 50 4 32 25 -9 11 -9 19 -1 33 8 12 8 21 1
28 -6 6 -8 18 -5 26 7 18 47 22 47 5 0 -8 5 -8 15 1 9 7 27 10 44 7 34 -7 45
1 29 20 -9 11 -9 19 -1 32 13 20 1 47 -16 37 -6 -4 -8 -20 -4 -36 6 -34 -17
-51 -42 -30 -12 10 -18 10 -30 0 -20 -17 -45 -5 -45 20 0 27 26 36 48 17 16
-15 19 -15 29 2 9 14 7 20 -7 29 -12 7 -21 7 -28 0 -14 -14 -42 -3 -42 15 0
25 26 40 42 24 11 -12 17 -12 31 -2 16 11 15 13 -3 30 -13 11 -20 14 -20 6 0
-7 -10 -11 -22 -9 -15 2 -23 10 -23 23 0 16 7 20 30 20 44 0 59 12 40 32 -12
12 -19 12 -30 3 -20 -17 -45 -5 -45 20 0 25 22 35 48 21 28 -15 46 7 27 33
-13 17 -15 17 -30 3 -16 -17 -45 -13 -45 6 0 5 -9 2 -20 -8 -19 -17 -22 -17
-37 -3 -9 9 -13 24 -10 32 7 18 42 21 53 5 4 -8 9 -8 17 0 15 15 44 14 50 -1
3 -10 7 -10 20 1 10 8 27 11 41 7 29 -7 43 9 26 29 -10 13 -14 12 -27 -1 -14
-13 -18 -13 -39 1 -15 9 -24 11 -24 5 0 -22 -45 -5 -48 18 -4 26 21 40 42 23
11 -9 19 -9 34 0 16 10 23 10 36 0 13 -11 19 -11 31 -1 14 11 14 15 1 29 -27
29 13 68 41 40z m1999 -4 c7 -18 -12 -45 -32 -45 -15 0 -28 35 -19 50 9 15 45
12 51 -5z m62 -9 c5 -24 -10 -38 -31 -30 -17 6 -23 35 -10 48 12 12 38 1 41
-18z m67 -2 c0 -10 -8 -20 -18 -22 -22 -4 -35 27 -16 39 20 12 34 5 34 -17z
m71 -13 c-9 -14 -33 -14 -41 -1 -4 6 -1 18 6 26 11 13 14 13 27 0 8 -8 11 -19
8 -25z m70 0 c-9 -14 -33 -14 -41 -1 -4 6 -1 18 6 26 11 13 14 13 27 0 8 -8
11 -19 8 -25z m-2756 8 c0 -5 -7 -9 -15 -9 -15 0 -20 12 -9 23 8 8 24 -1 24
-14z m70 7 c0 -20 -19 -31 -32 -18 -6 6 -7 15 -4 21 10 16 36 13 36 -3z m2745
-16 c-5 -8 -11 -8 -17 -2 -6 6 -7 16 -3 22 5 8 11 8 17 2 6 -6 7 -16 3 -22z
m-2885 16 c0 -3 -4 -8 -10 -11 -5 -3 -10 -1 -10 4 0 6 5 11 10 11 6 0 10 -2
10 -4z m2950 -6 c0 -5 -4 -10 -10 -10 -5 0 -10 5 -10 10 0 6 5 10 10 10 6 0
10 -4 10 -10z m-2730 -75 c0 -15 -27 -28 -41 -19 -13 8 -11 42 4 47 15 5 37
-11 37 -28z m54 20 c19 -19 10 -45 -14 -45 -22 0 -30 19 -18 43 11 21 13 21
32 2z m76 0 c10 -12 10 -18 0 -30 -16 -19 -39 -19 -46 0 -6 15 11 45 26 45 4
0 13 -7 20 -15z m2204 -8 c8 -12 7 -21 -5 -32 -21 -21 -49 -9 -49 20 0 36 34
44 54 12z m139 -1 c8 -20 -8 -38 -29 -34 -22 4 -31 37 -13 48 15 10 36 3 42
-14z m-2631 -18 c-15 -15 -26 -4 -18 18 5 13 9 15 18 6 9 -9 9 -15 0 -24z m81
18 c9 -22 -18 -40 -33 -22 -6 9 -9 20 -5 26 9 15 32 12 38 -4z m2481 5 c10
-16 -5 -41 -24 -41 -23 0 -34 16 -26 35 6 16 42 20 50 6z m134 -14 c4 -20 -25
-34 -40 -19 -15 15 -1 44 19 40 10 -2 19 -11 21 -21z m70 2 c3 -17 -23 -33
-39 -23 -5 3 -9 14 -9 25 0 15 6 20 22 17 13 -2 24 -10 26 -19z m60 -2 c2 -10
-3 -17 -12 -17 -10 0 -16 9 -16 21 0 24 23 21 28 -4z m-2890 2 c-2 -6 -8 -10
-13 -10 -5 0 -11 4 -13 10 -2 6 4 11 13 11 9 0 15 -5 13 -11z m2960 -1 c-6
-18 -28 -21 -28 -4 0 9 7 16 16 16 9 0 14 -5 12 -12z m-2815 -60 c6 -19 -3
-38 -18 -38 -18 0 -28 17 -21 35 7 18 33 20 39 3z m73 -3 c4 -8 0 -22 -7 -31
-11 -13 -14 -13 -27 0 -17 17 -9 46 13 46 9 0 18 -7 21 -15z m68 -1 c8 -21 -1
-34 -25 -34 -14 0 -19 7 -19 25 0 29 34 36 44 9z m2272 2 c3 -8 1 -23 -5 -34
-14 -27 5 -45 30 -29 15 9 22 8 35 -5 14 -14 15 -20 4 -32 -17 -21 -37 -20
-49 2 -9 16 -10 16 -16 0 -9 -23 -44 -23 -52 -2 -3 9 -2 24 4 33 7 11 7 21 0
32 -6 9 -7 24 -4 33 8 20 46 21 53 2z m68 -2 c7 -19 -10 -44 -31 -44 -17 0
-27 24 -19 45 7 20 42 19 50 -1z m67 0 c11 -14 10 -18 -6 -30 -16 -12 -21 -12
-33 0 -17 17 -9 46 11 46 8 0 21 -7 28 -16z m67 -7 c4 -20 -25 -34 -40 -19
-15 15 -1 44 19 40 10 -2 19 -11 21 -21z m70 0 c4 -20 -25 -34 -40 -19 -15 15
-1 44 19 40 10 -2 19 -11 21 -21z m59 7 c8 -21 -13 -42 -28 -27 -13 13 -5 43
11 43 6 0 13 -7 17 -16z m-2887 -9 c0 -8 -7 -15 -15 -15 -8 0 -15 7 -15 15 0
8 7 15 15 15 8 0 15 -7 15 -15z m73 8 c4 -3 2 -12 -4 -20 -9 -10 -15 -10 -25
-2 -8 6 -11 15 -8 20 6 11 28 12 37 2z m2879 -8 c0 -5 -5 -11 -11 -13 -6 -2
-11 4 -11 13 0 9 5 15 11 13 6 -2 11 -8 11 -13z m-2806 -84 c-10 -15 -46 -14
-46 2 0 7 5 18 12 25 10 10 15 9 26 -2 8 -8 11 -19 8 -25z m70 24 c8 -20 -13
-45 -32 -38 -17 6 -18 25 -2 41 16 16 27 15 34 -3z m64 -1 c11 -12 10 -18 -3
-32 -16 -15 -18 -15 -34 0 -13 14 -14 20 -3 32 7 9 16 16 20 16 4 0 13 -7 20
-16z m70 1 c10 -12 10 -18 0 -30 -16 -19 -39 -19 -46 0 -6 15 11 45 26 45 4 0
13 -7 20 -15z m2335 -16 c0 -28 -29 -38 -39 -13 -7 19 11 47 28 41 6 -2 11
-14 11 -28z m73 5 c3 -23 -17 -37 -37 -24 -19 11 -4 52 17 48 10 -2 18 -13 20
-24z m62 -18 c-7 -9 -17 -16 -22 -16 -16 0 -21 30 -7 46 11 13 14 13 27 0 13
-12 13 -18 2 -30z m-2816 3 c-8 -14 -34 -11 -34 4 0 8 3 17 7 20 9 9 34 -13
27 -24z m71 11 c0 -8 -8 -16 -17 -18 -13 -2 -18 3 -18 18 0 15 5 20 18 18 9
-2 17 -10 17 -18z m2815 0 c0 -13 -7 -20 -20 -20 -19 0 -27 20 -13 33 13 14
33 6 33 -13z m-2960 0 c0 -5 -4 -10 -10 -10 -5 0 -10 5 -10 10 0 6 5 10 10 10
6 0 10 -4 10 -10z m3030 1 c0 -12 -28 -22 -34 -12 -3 5 -3 11 1 15 9 9 33 7
33 -3z m-2600 -76 c0 -15 -35 -30 -50 -20 -13 8 -13 28 2 43 14 14 48 -2 48
-23z m2197 19 c3 -9 0 -26 -7 -37 -9 -15 -10 -22 -1 -25 14 -5 15 -39 1 -47
-8 -5 -7 -12 1 -22 10 -11 10 -19 1 -34 -7 -11 -9 -25 -5 -32 11 -17 12 -96 1
-103 -5 -3 -4 -11 2 -19 16 -20 3 -55 -21 -55 -25 0 -36 27 -21 51 7 10 8 21
3 24 -11 6 -11 94 0 101 5 2 3 16 -3 30 -9 18 -9 27 0 36 9 9 9 15 0 26 -9 10
-9 18 0 33 9 14 9 23 1 38 -16 24 -5 51 21 51 11 0 23 -7 27 -16z m71 -22 c-5
-24 -52 -23 -56 2 -2 10 2 22 9 27 18 11 51 -9 47 -29z m50 29 c19 -11 11 -45
-11 -49 -19 -4 -32 20 -23 43 6 17 15 19 34 6z m-2540 -24 c2 -10 -3 -17 -12
-17 -18 0 -29 16 -21 31 9 14 29 6 33 -14z m78 12 c10 -17 -23 -46 -37 -32 -7
7 -9 19 -6 27 7 18 33 21 43 5z m72 -10 c3 -17 -23 -33 -39 -23 -5 3 -9 14 -9
25 0 15 6 20 22 17 13 -2 24 -10 26 -19z m2469 5 c3 -8 1 -20 -6 -27 -14 -14
-47 15 -37 32 10 16 36 13 43 -5z m71 -5 c4 -19 -27 -34 -41 -20 -14 14 0 43
20 39 10 -2 19 -10 21 -19z m59 6 c7 -20 -2 -29 -21 -22 -9 4 -13 13 -10 22 8
19 23 19 31 0z m-2893 -16 c-3 -5 -10 -7 -15 -3 -5 3 -7 10 -3 15 3 5 10 7 15
3 5 -3 7 -10 3 -15z m80 12 c3 -5 0 -11 -8 -14 -15 -6 -26 1 -26 15 0 11 27
10 34 -1z m2881 0 c7 -12 -12 -24 -25 -16 -11 7 -4 25 10 25 5 0 11 -4 15 -9z
m-2744 -85 c-14 -16 -41 -11 -41 8 0 7 5 17 12 24 19 19 46 -11 29 -32z m149
16 c0 -12 -23 -32 -36 -32 -17 0 -26 30 -13 46 8 10 16 11 30 3 10 -5 19 -13
19 -17z m2328 -6 c-4 -25 -36 -34 -44 -12 -8 21 13 46 32 39 8 -3 14 -15 12
-27z m72 -2 c0 -16 -36 -19 -45 -4 -4 6 -1 17 5 26 14 16 40 2 40 -22z m-2620
6 c0 -11 -6 -20 -14 -20 -18 0 -29 16 -21 30 11 18 35 11 35 -10z m143 6 c7
-17 -18 -40 -33 -31 -5 3 -10 15 -10 26 0 23 35 27 43 5z m2342 3 c4 -5 0 -18
-9 -28 -14 -16 -14 -19 1 -34 16 -16 16 -18 0 -34 -16 -16 -18 -16 -34 0 -15
14 -15 21 -6 37 8 12 9 21 3 25 -6 3 -10 15 -10 26 0 14 7 19 24 19 14 0 28
-5 31 -11z m199 -4 c3 -9 -1 -18 -10 -22 -19 -7 -39 11 -30 26 10 16 33 13 40
-4z m58 -17 c-15 -15 -26 -4 -18 18 5 13 9 15 18 6 9 -9 9 -15 0 -24z m-2892
6 c0 -8 -4 -12 -10 -9 -5 3 -10 10 -10 16 0 5 5 9 10 9 6 0 10 -7 10 -16z m88
4 c-3 -7 -11 -13 -18 -13 -7 0 -15 6 -17 13 -3 7 4 12 17 12 13 0 20 -5 18
-12z m2872 2 c0 -5 -4 -10 -10 -10 -5 0 -10 5 -10 10 0 6 5 10 10 10 6 0 10
-4 10 -10z m-2810 -65 c0 -8 -5 -17 -11 -21 -16 -9 -30 18 -17 33 12 15 28 8
28 -12z m78 2 c4 -20 -25 -34 -40 -19 -15 15 -1 44 19 40 10 -2 19 -11 21 -21z
m62 8 c15 -18 5 -35 -21 -35 -12 0 -19 7 -19 18 0 33 20 42 40 17z m70 0 c10
-12 10 -18 0 -30 -16 -19 -39 -19 -46 0 -6 15 11 45 26 45 4 0 13 -7 20 -15z
m2338 -11 c2 -12 -4 -24 -12 -27 -19 -7 -40 18 -32 39 8 22 40 13 44 -12z m62
11 c13 -16 6 -35 -15 -35 -15 0 -24 19 -17 38 6 16 17 15 32 -3z m70 -16 c0
-20 -24 -26 -35 -9 -8 13 14 42 26 34 5 -3 9 -14 9 -25z m-2823 -5 c-9 -9 -28
6 -21 18 4 6 10 6 17 -1 6 -6 8 -13 4 -17z m73 11 c0 -8 -7 -15 -15 -15 -16 0
-20 12 -8 23 11 12 23 8 23 -8z m1235 5 c-6 -10 -118 -70 -130 -70 -19 0 16
26 69 51 69 33 70 33 61 19z m1585 -11 c0 -5 -7 -9 -15 -9 -15 0 -20 12 -9 23
8 8 24 -1 24 -14z m-2960 7 c0 -3 -4 -8 -10 -11 -5 -3 -10 -1 -10 4 0 6 5 11
10 11 6 0 10 -2 10 -4z m3020 -6 c0 -5 -4 -10 -10 -10 -5 0 -10 5 -10 10 0 6
5 10 10 10 6 0 10 -4 10 -10z m-1285 -48 c-3 -3 -11 0 -18 7 -9 10 -8 11 6 5
10 -3 15 -9 12 -12z m-1589 -3 c10 -17 -13 -36 -27 -22 -12 12 -4 33 11 33 5
0 12 -5 16 -11z m64 -9 c0 -13 -7 -20 -20 -20 -19 0 -27 20 -13 33 13 14 33 6
33 -13z m76 9 c3 -6 0 -17 -7 -25 -18 -17 -44 -2 -36 20 7 18 33 21 43 5z m68
-5 c8 -21 -1 -34 -24 -34 -20 0 -30 17 -22 38 6 17 39 15 46 -4z m2339 3 c3
-8 1 -20 -3 -27 -5 -8 -4 -22 2 -33 12 -23 -2 -40 -28 -35 -21 4 -33 48 -13
48 9 0 8 4 -1 15 -7 8 -10 22 -6 30 7 19 42 20 49 2z m65 -10 c4 -20 -25 -34
-40 -19 -15 15 -1 44 19 40 10 -2 19 -11 21 -21z m67 -1 c0 -22 -14 -29 -34
-17 -19 12 -6 43 16 39 10 -2 18 -12 18 -22z m70 4 c0 -8 -10 -16 -22 -18 -22
-3 -32 16 -16 32 12 11 38 2 38 -14z m-2825 -11 c0 -5 -7 -9 -15 -9 -15 0 -20
12 -9 23 8 8 24 -1 24 -14z m2888 4 c-4 -22 -22 -20 -26 1 -2 10 3 16 13 16
10 0 15 -7 13 -17z m62 7 c0 -5 -5 -10 -11 -10 -5 0 -7 5 -4 10 3 6 8 10 11
10 2 0 4 -4 4 -10z m-1475 -30 c4 -6 -16 -10 -52 -10 -41 0 -54 3 -43 10 20
13 87 13 95 0z m-1335 -36 c0 -14 -21 -19 -33 -7 -9 9 13 34 24 27 5 -3 9 -12
9 -20z m78 5 c4 -19 -27 -34 -41 -20 -14 14 0 43 20 39 10 -2 19 -10 21 -19z
m60 -7 c3 -17 -2 -22 -17 -22 -14 0 -21 6 -21 18 0 38 33 41 38 4z m2411 14
c9 -10 8 -16 -4 -26 -20 -16 -45 -6 -45 20 0 23 31 28 49 6z m66 -11 c0 -11
-7 -21 -16 -23 -18 -3 -33 23 -23 39 10 17 39 5 39 -16z m65 -6 c0 -20 -24
-26 -35 -9 -8 13 14 42 26 34 5 -3 9 -14 9 -25z m-2740 12 c0 -14 -18 -23 -30
-16 -6 4 -8 11 -5 16 8 12 35 12 35 0z m2808 -9 c2 -7 -3 -12 -12 -12 -9 0
-16 7 -16 16 0 17 22 14 28 -4z m62 8 c0 -5 -5 -10 -11 -10 -5 0 -7 5 -4 10 3
6 8 10 11 10 2 0 4 -4 4 -10z m-1308 -44 c20 -1 40 -4 43 -8 10 -10 -22 -64
-51 -87 -27 -21 -27 -21 -58 -1 -17 10 -31 25 -31 32 0 9 -21 15 -60 19 -69 7
-177 0 -170 -11 6 -10 -52 -60 -69 -60 -17 0 -58 45 -72 78 l-11 27 86 12 c52
7 140 9 221 6 74 -3 152 -6 172 -7z m-1429 -10 c7 -18 -1 -26 -25 -26 -18 0
-25 20 -11 33 11 12 31 8 36 -7z m70 2 c6 -18 -3 -38 -17 -38 -18 0 -35 21
-29 36 6 17 40 18 46 2z m2332 -18 c0 -16 -6 -26 -18 -28 -19 -4 -32 20 -23
44 9 25 41 13 41 -16z m73 6 c4 -21 -14 -37 -35 -29 -14 5 -18 35 -6 47 12 12
38 1 41 -18z m-2623 4 c3 -5 1 -10 -4 -10 -6 0 -11 5 -11 10 0 6 2 10 4 10 3
0 8 -4 11 -10z m75 -5 c0 -8 -7 -15 -15 -15 -8 0 -15 7 -15 15 0 8 7 15 15 15
8 0 15 -7 15 -15z m2618 -2 c5 -18 -28 -29 -38 -12 -5 7 -6 17 -3 22 7 12 35
5 41 -10z m66 8 c3 -5 -1 -15 -10 -22 -13 -10 -17 -10 -24 1 -5 8 -6 18 -4 22
7 11 31 10 38 -1z m57 -14 c-13 -13 -26 -3 -16 12 3 6 11 8 17 5 6 -4 6 -10
-1 -17z m-2741 -63 c0 -8 -7 -14 -15 -14 -15 0 -21 21 -9 33 10 9 24 -2 24
-19z m78 3 c4 -20 -25 -34 -40 -19 -15 15 -1 44 19 40 10 -2 19 -11 21 -21z
m62 7 c11 -12 10 -18 -3 -32 -16 -15 -18 -15 -34 0 -13 14 -14 20 -3 32 7 9
16 16 20 16 4 0 13 -7 20 -16z m70 1 c10 -12 10 -18 0 -30 -17 -21 -37 -19
-45 5 -12 37 20 55 45 25z m2199 6 c19 -12 4 -51 -20 -51 -22 0 -34 22 -25 45
6 17 24 19 45 6z m71 -7 c11 -12 11 -18 -2 -30 -18 -18 -48 -8 -48 15 0 33 28
42 50 15z m68 -9 c4 -20 -15 -36 -35 -28 -17 6 -17 40 0 46 19 8 32 2 35 -18z
m72 -7 c0 -15 -32 -21 -40 -7 -13 20 9 43 26 28 8 -6 14 -16 14 -21z m-2685
12 c3 -5 -1 -10 -9 -10 -9 0 -16 5 -16 10 0 6 4 10 9 10 6 0 13 -4 16 -10z
m852 -370 c17 -47 46 -117 66 -156 40 -79 170 -277 219 -332 36 -41 148 -212
148 -225 0 -5 -30 19 -67 54 -75 69 -181 141 -260 178 l-52 24 -6 66 c-10 101
-8 99 -90 61 -189 -87 -240 -112 -266 -131 l-32 -23 6 25 c3 13 13 65 21 114
15 86 25 129 82 342 40 154 96 276 162 354 l27 33 6 -150 c5 -131 10 -159 36
-234z m1891 363 c-4 -22 -22 -20 -26 1 -2 10 3 16 13 16 10 0 15 -7 13 -17z
m66 -4 c-3 -5 -10 -7 -15 -3 -5 3 -7 10 -3 15 3 5 10 7 15 3 5 -3 7 -10 3 -15z
m-858 -61 c53 -79 81 -143 124 -283 26 -84 84 -341 105 -459 l6 -39 -33 22
c-73 48 -325 168 -334 158 -2 -2 -9 -38 -15 -81 l-12 -77 -53 -24 c-81 -36
-182 -105 -259 -176 -38 -35 -66 -56 -62 -46 8 21 96 153 233 347 92 131 164
262 199 365 15 41 31 204 34 343 1 37 17 25 67 -50z m-1810 -17 c-10 -15 -46
-14 -46 2 0 7 5 18 12 25 10 10 15 9 26 -2 8 -8 11 -19 8 -25z m64 23 c11 -12
11 -18 -2 -31 -19 -18 -38 -10 -38 16 0 33 20 40 40 15z m75 -5 c7 -22 -7 -39
-33 -39 -16 0 -26 25 -18 45 8 23 44 18 51 -6z m2194 7 c9 -11 10 -20 1 -36
-8 -15 -8 -25 -1 -34 12 -15 5 -46 -11 -46 -5 0 -2 -7 6 -16 12 -12 13 -20 6
-35 -13 -23 -23 -24 -41 -3 -9 11 -10 20 -2 32 7 12 7 24 0 40 -8 18 -8 25 2
31 10 7 10 12 0 28 -23 38 12 73 40 39z m81 -11 c0 -32 -45 -49 -56 -20 -10
24 14 47 37 34 10 -5 19 -11 19 -14z m60 -5 c0 -23 -13 -32 -34 -24 -19 7 -21
25 -5 41 16 16 39 5 39 -17z m-2620 5 c0 -8 -4 -15 -10 -15 -5 0 -10 7 -10 15
0 8 5 15 10 15 6 0 10 -7 10 -15z m68 -2 c-4 -22 -22 -20 -26 1 -2 10 3 16 13
16 10 0 15 -7 13 -17z m2617 -3 c0 -8 -8 -16 -17 -18 -13 -2 -18 3 -18 18 0
15 5 20 18 18 9 -2 17 -10 17 -18z m65 0 c0 -11 -7 -20 -15 -20 -8 0 -15 9
-15 20 0 11 7 20 15 20 8 0 15 -9 15 -20z m70 0 c0 -5 -4 -10 -10 -10 -5 0
-10 5 -10 10 0 6 5 10 10 10 6 0 10 -4 10 -10z m-1911 -51 c13 -38 14 -188 2
-208 -17 -26 -26 12 -29 127 -4 115 5 143 27 81z m-772 0 c14 -14 6 -39 -12
-39 -18 0 -28 17 -21 35 6 18 18 19 33 4z m69 -4 c4 -8 4 -22 0 -30 -7 -19
-36 -8 -36 14 0 32 26 43 36 16z m78 0 c8 -22 -4 -45 -24 -45 -20 0 -36 33
-25 50 9 15 42 12 49 -5z m2261 -15 c0 -31 -31 -39 -40 -11 -8 26 2 43 23 39
11 -2 17 -13 17 -28z m73 5 c5 -22 -18 -37 -35 -23 -17 13 -17 35 0 41 19 8
32 2 35 -18z m-2618 0 c0 -8 -4 -15 -10 -15 -5 0 -10 7 -10 15 0 8 5 15 10 15
6 0 10 -7 10 -15z m68 -2 c-4 -22 -22 -20 -26 1 -2 10 3 16 13 16 10 0 15 -7
13 -17z m1758 -35 c-3 -29 -6 -75 -7 -103 0 -37 -3 -45 -9 -30 -18 41 -8 185
13 185 6 0 7 -20 3 -52z m859 32 c0 -8 -8 -16 -17 -18 -13 -2 -18 3 -18 18 0
15 5 20 18 18 9 -2 17 -10 17 -18z m65 0 c0 -11 -7 -20 -15 -20 -8 0 -15 9
-15 20 0 11 7 20 15 20 8 0 15 -9 15 -20z m70 -1 c0 -5 -7 -9 -15 -9 -15 0
-20 12 -9 23 8 8 24 -1 24 -14z m-2683 -55 c7 -20 -8 -36 -25 -25 -14 8 -6 41
9 41 5 0 12 -7 16 -16z m76 2 c8 -20 -20 -43 -35 -28 -14 14 -3 42 16 42 7 0
16 -6 19 -14z m71 -2 c8 -21 -1 -34 -24 -34 -22 0 -34 15 -26 35 7 20 42 19
50 -1z m66 6 c11 -7 12 -14 4 -27 -13 -21 -25 -25 -43 -14 -8 5 -11 16 -6 30
7 23 21 26 45 11z m2199 -4 c9 -11 8 -18 -5 -31 -15 -15 -19 -15 -32 -1 -17
17 -10 46 11 46 8 0 20 -6 26 -14z m69 -9 c4 -20 -25 -34 -40 -19 -15 15 -1
44 19 40 10 -2 19 -11 21 -21z m67 -3 c0 -10 -8 -20 -17 -22 -18 -3 -26 27
-11 42 12 11 28 0 28 -20z m65 0 c0 -8 -7 -14 -15 -14 -15 0 -21 21 -9 33 10
9 24 -2 24 -19z m-2680 6 c0 -5 -4 -10 -10 -10 -5 0 -10 5 -10 10 0 6 5 10 10
10 6 0 10 -4 10 -10z m70 -70 c0 -11 -7 -20 -15 -20 -8 0 -15 9 -15 20 0 11 7
20 15 20 8 0 15 -9 15 -20z m68 -8 c3 -17 -2 -22 -17 -22 -14 0 -21 6 -21 18
0 38 33 41 38 4z m76 12 c8 -21 -1 -34 -24 -34 -22 0 -34 15 -26 35 7 20 42
19 50 -1z m2193 -18 c-3 -18 -1 -38 5 -44 13 -13 -7 -42 -29 -42 -19 0 -28 27
-13 45 10 12 10 18 0 30 -17 20 -5 45 21 45 19 0 21 -4 16 -34z m71 6 c3 -16
-2 -22 -17 -22 -24 0 -35 15 -27 36 9 23 40 13 44 -14z m70 5 c4 -20 -25 -34
-40 -19 -15 15 -1 44 19 40 10 -2 19 -11 21 -21z m65 10 c3 -8 1 -20 -4 -28
-11 -19 -34 3 -26 25 8 20 23 21 30 3z m-2108 -119 c-33 -102 -48 -172 -80
-358 -28 -162 -29 -180 -15 -180 6 0 36 18 68 39 72 49 289 154 302 146 6 -3
10 -17 10 -29 0 -71 10 -86 84 -123 109 -54 194 -115 270 -192 58 -58 67 -71
52 -77 -27 -11 -212 2 -300 21 -87 18 -305 91 -376 125 -186 89 -308 173 -453
310 -53 51 -97 95 -97 100 0 4 48 29 107 55 58 26 154 71 212 100 58 29 107
52 109 50 1 -1 -16 -38 -38 -81 -41 -81 -66 -167 -38 -132 8 9 45 74 84 143
66 122 109 183 120 172 3 -3 -6 -43 -21 -89z m1655 -78 c103 -186 114 -200
105 -145 -7 39 -32 98 -70 162 -11 17 -17 34 -14 38 8 7 319 -145 319 -156 0
-15 -192 -203 -259 -254 -44 -33 -65 -44 -71 -36 -4 7 -14 60 -24 119 -19 126
-50 258 -82 361 -29 88 -28 84 -6 72 9 -5 55 -78 102 -161z m-1950 120 c0 -19
-25 -34 -41 -24 -23 14 2 57 27 47 8 -3 14 -13 14 -23z m-140 12 c0 -13 -12
-22 -22 -16 -10 6 -1 24 13 24 5 0 9 -4 9 -8z m70 -13 c0 -25 -33 -22 -38 4
-2 12 3 17 17 17 15 0 21 -6 21 -21z m2340 2 c0 -27 -19 -36 -37 -18 -18 18
-9 37 18 37 12 0 19 -7 19 -19z m68 2 c5 -17 -26 -29 -40 -15 -6 6 -7 15 -3
22 9 14 37 9 43 -7z m62 2 c0 -8 -7 -15 -15 -15 -16 0 -20 12 -8 23 11 12 23
8 23 -8z m-2402 -73 c3 -16 -2 -22 -17 -22 -26 0 -36 17 -20 36 16 19 33 13
37 -14z m2132 13 c7 -9 10 -19 6 -22 -8 -9 -38 9 -44 25 -5 17 23 15 38 -3z
m68 -9 c5 -26 -11 -38 -32 -23 -11 8 -15 19 -10 30 8 23 38 18 42 -7z m72 -7
c0 -12 -7 -19 -19 -19 -26 0 -36 17 -21 35 15 18 40 8 40 -16z m-2345 1 c0 -7
-6 -15 -12 -17 -8 -3 -13 4 -13 17 0 13 5 20 13 18 6 -3 12 -11 12 -18z m125
5 c-7 -8 -16 -12 -21 -9 -13 8 -1 24 18 24 13 0 13 -3 3 -15z m2280 0 c0 -8
-7 -15 -15 -15 -16 0 -20 12 -8 23 11 12 23 8 23 -8z m70 5 c0 -5 -4 -10 -10
-10 -5 0 -10 5 -10 10 0 6 5 10 10 10 6 0 10 -4 10 -10z m-1548 -122 c30 -46
69 -106 87 -135 56 -90 88 -98 58 -15 -21 57 -21 63 -2 56 8 -3 17 -21 21 -39
4 -25 13 -36 33 -43 38 -13 71 2 71 32 0 30 53 78 58 53 2 -9 -4 -29 -12 -46
-19 -36 -21 -64 -3 -59 12 4 45 50 120 166 20 33 49 69 62 82 l25 24 -13 -45
c-8 -24 -29 -79 -47 -121 -25 -60 -38 -79 -61 -89 -28 -11 -74 -58 -66 -66 2
-2 31 10 65 27 33 16 66 30 72 30 7 0 -3 -19 -20 -42 -46 -62 -162 -235 -193
-290 -16 -27 -29 -48 -31 -48 -2 0 -19 26 -37 58 -43 77 -138 217 -184 272
-20 24 -32 46 -26 48 6 2 39 -10 73 -27 34 -16 64 -28 66 -26 9 8 -25 44 -62
67 -37 22 -44 34 -73 114 -34 96 -48 144 -41 144 3 0 30 -37 60 -82z m-932 62
c0 -5 -4 -10 -10 -10 -5 0 -10 5 -10 10 0 6 5 10 10 10 6 0 10 -4 10 -10z
m2340 -10 c0 -5 -7 -7 -15 -4 -8 4 -15 8 -15 10 0 2 7 4 15 4 8 0 15 -4 15
-10z m78 -2 c-3 -7 -11 -13 -18 -13 -7 0 -15 6 -17 13 -3 7 4 12 17 12 13 0
20 -5 18 -12z m-612 -323 c71 -35 140 -73 154 -84 25 -20 25 -20 5 -36 -27
-20 -246 -128 -315 -154 -95 -37 -252 -73 -340 -79 l-84 -5 24 29 c77 91 200
182 326 240 l71 33 7 61 c4 33 10 60 15 60 4 0 65 -29 137 -65z"/>
<path d="M2545 3640 c-200 -36 -393 -173 -468 -332 -76 -160 -76 -393 -2 -680
16 -61 21 -68 54 -83 20 -9 45 -21 56 -28 106 -62 155 -70 270 -43 33 8 62 13
64 10 2 -2 -4 -13 -14 -24 -22 -25 -14 -25 50 -3 60 21 65 27 65 76 0 21 5 47
11 59 11 21 4 88 -10 88 -4 0 -13 -12 -20 -26 -13 -30 -6 -31 -151 26 -151 60
-240 90 -265 90 -12 0 -34 -9 -49 -21 -39 -31 -32 -9 27 78 l52 79 -22 119
c-11 66 -24 154 -28 195 -10 108 0 114 97 57 152 -90 346 -153 438 -143 105
12 324 103 432 179 49 34 53 -54 13 -257 -14 -69 -25 -132 -25 -139 0 -8 23
-49 51 -91 50 -76 58 -106 19 -71 -29 26 -71 17 -263 -59 -93 -36 -172 -66
-177 -66 -4 0 -13 14 -20 30 -7 17 -16 30 -20 30 -14 0 -16 -70 -3 -101 7 -17
10 -35 7 -41 -3 -5 -3 -20 0 -33 6 -24 76 -65 146 -85 l34 -10 -35 31 -34 30
30 -6 c17 -3 64 -8 105 -11 66 -5 80 -3 117 18 129 71 192 134 177 180 -4 14
-3 18 6 13 7 -4 10 -2 9 6 -1 8 1 21 4 29 11 27 36 173 42 245 8 80 -7 217
-32 290 -35 106 -133 228 -237 293 -33 21 -101 53 -150 71 -73 26 -108 32
-195 36 -58 2 -128 0 -156 -5z m-142 -1053 c18 -8 38 -21 45 -29 11 -14 8 -19
-15 -38 -23 -18 -37 -21 -81 -18 -76 7 -130 61 -84 87 24 15 97 13 135 -2z
m671 0 c15 -11 17 -17 7 -35 -26 -49 -117 -67 -172 -35 -35 21 -33 31 11 61
38 25 124 31 154 9z"/>
<path d="M2743 2779 c-35 -22 -46 -37 -15 -20 22 13 58 40 52 41 -3 0 -20 -10
-37 -21z"/>
<path d="M3581 2616 c-9 -11 -8 -15 5 -20 23 -9 38 8 21 23 -11 9 -17 8 -26
-3z"/>
<path d="M3502 2611 c-10 -6 -8 -10 9 -14 26 -7 42 0 34 14 -8 11 -26 11 -43
0z"/>
<path d="M3515 2550 c-10 -16 7 -31 23 -21 10 6 10 10 -2 20 -10 9 -16 9 -21
1z"/>
<path d="M3580 2545 c-10 -12 -9 -16 5 -21 23 -9 40 10 22 25 -11 9 -17 8 -27
-4z"/>
<path d="M3515 2471 c-6 -11 9 -23 19 -14 9 9 7 23 -3 23 -6 0 -12 -4 -16 -9z"/>
<path d="M3586 2473 c-11 -11 -6 -23 9 -23 8 0 15 4 15 9 0 13 -16 22 -24 14z"/>
<path d="M3657 2404 c-14 -14 -7 -35 11 -32 9 2 17 10 17 17 0 16 -18 25 -28
15z"/>
<path d="M3515 2391 c-6 -11 9 -23 19 -14 9 9 7 23 -3 23 -6 0 -12 -4 -16 -9z"/>
<path d="M3582 2391 c4 -13 18 -16 19 -4 0 4 -5 9 -11 12 -7 2 -11 -2 -8 -8z"/>
<path d="M3656 2324 c-3 -9 -3 -20 0 -25 9 -15 34 10 27 27 -7 19 -19 18 -27
-2z"/>
<path d="M3446 2321 c-4 -5 -2 -12 3 -15 5 -4 12 -2 15 3 4 5 2 12 -3 15 -5 4
-12 2 -15 -3z"/>
<path d="M3520 2316 c0 -9 5 -16 10 -16 6 0 10 4 10 9 0 6 -4 13 -10 16 -5 3
-10 -1 -10 -9z"/>
<path d="M3580 2316 c0 -9 7 -16 16 -16 17 0 14 22 -4 28 -7 2 -12 -3 -12 -12z"/>
<path d="M3516 2253 c-11 -11 -6 -23 9 -23 8 0 15 4 15 9 0 13 -16 22 -24 14z"/>
<path d="M3587 2253 c-12 -11 -8 -23 8 -23 8 0 15 7 15 15 0 16 -12 20 -23 8z"/>
<path d="M3654 2249 c-3 -6 -2 -15 2 -19 12 -12 38 5 30 19 -9 14 -23 14 -32
0z"/>
<path d="M3380 2240 c0 -5 5 -10 10 -10 6 0 10 5 10 10 0 6 -4 10 -10 10 -5 0
-10 -4 -10 -10z"/>
<path d="M3450 2240 c0 -5 5 -10 10 -10 6 0 10 5 10 10 0 6 -4 10 -10 10 -5 0
-10 -4 -10 -10z"/>
<path d="M3657 2176 c-6 -16 2 -28 14 -20 12 7 11 34 0 34 -5 0 -11 -6 -14
-14z"/>
<path d="M3450 2170 c0 -5 5 -10 11 -10 5 0 7 5 4 10 -3 6 -8 10 -11 10 -2 0
-4 -4 -4 -10z"/>
<path d="M3520 2170 c0 -5 5 -10 10 -10 6 0 10 5 10 10 0 6 -4 10 -10 10 -5 0
-10 -4 -10 -10z"/>
<path d="M3585 2170 c-3 -5 1 -10 10 -10 9 0 13 5 10 10 -3 6 -8 10 -10 10 -2
0 -7 -4 -10 -10z"/>
<path d="M3660 2099 c0 -11 5 -17 10 -14 6 3 10 13 10 21 0 8 -4 14 -10 14 -5
0 -10 -9 -10 -21z"/>
<path d="M3657 2046 c-7 -19 11 -32 24 -19 6 6 5 14 -4 22 -12 9 -16 8 -20 -3z"/>
<path d="M3660 1986 c0 -9 5 -16 10 -16 6 0 10 4 10 9 0 6 -4 13 -10 16 -5 3
-10 -1 -10 -9z"/>
<path d="M3590 1926 c0 -9 5 -16 10 -16 6 0 10 4 10 9 0 6 -4 13 -10 16 -5 3
-10 -1 -10 -9z"/>
<path d="M3657 1926 c-7 -19 11 -32 24 -19 6 6 5 14 -4 22 -12 9 -16 8 -20 -3z"/>
<path d="M3653 1855 c-8 -21 1 -28 26 -20 18 5 19 8 7 21 -19 18 -25 18 -33
-1z"/>
<path d="M3516 1851 c-4 -5 -2 -12 3 -15 5 -4 12 -2 15 3 4 5 2 12 -3 15 -5 4
-12 2 -15 -3z"/>
<path d="M3586 1852 c-3 -6 -1 -14 5 -17 15 -10 25 3 12 16 -7 7 -13 7 -17 1z"/>
<path d="M3585 1780 c-8 -13 4 -32 16 -25 12 8 12 35 0 35 -6 0 -13 -4 -16
-10z"/>
<path d="M3450 1770 c0 -5 5 -10 10 -10 6 0 10 5 10 10 0 6 -4 10 -10 10 -5 0
-10 -4 -10 -10z"/>
<path d="M3520 1770 c0 -5 5 -10 10 -10 6 0 10 5 10 10 0 6 -4 10 -10 10 -5 0
-10 -4 -10 -10z"/>
<path d="M3515 1710 c-4 -6 -3 -16 3 -22 6 -6 12 -6 17 2 4 6 3 16 -3 22 -6 6
-12 6 -17 -2z"/>
<path d="M3585 1710 c-4 -6 -3 -16 3 -22 6 -6 12 -6 17 2 4 6 3 16 -3 22 -6 6
-12 6 -17 -2z"/>
<path d="M3442 1701 c2 -7 7 -12 11 -12 12 1 9 15 -3 20 -7 2 -11 -2 -8 -8z"/>
<path d="M3586 1644 c-4 -10 -2 -22 3 -27 7 -7 13 -5 17 7 4 10 2 22 -3 27 -7
7 -13 5 -17 -7z"/>
<path d="M3517 1636 c-3 -8 -2 -18 3 -21 13 -8 24 15 12 27 -6 6 -11 4 -15 -6z"/>
<path d="M3440 1630 c0 -5 5 -10 10 -10 6 0 10 5 10 10 0 6 -4 10 -10 10 -5 0
-10 -4 -10 -10z"/>
<path d="M3517 1583 c-4 -3 -7 -12 -7 -20 0 -15 26 -18 34 -4 7 11 -18 33 -27
24z"/>
<path d="M3584 1575 c-9 -23 10 -40 25 -22 9 11 8 17 -4 27 -12 10 -16 9 -21
-5z"/>
<path d="M3525 1500 c3 -5 8 -10 11 -10 2 0 4 5 4 10 0 6 -5 10 -11 10 -5 0
-7 -4 -4 -10z"/>
<path d="M1791 2477 c-13 -16 -5 -27 21 -27 21 0 23 13 4 29 -10 8 -16 8 -25
-2z"/>
<path d="M1791 2396 c-9 -10 -8 -15 2 -19 23 -9 41 8 24 22 -11 9 -17 8 -26
-3z"/>
<path d="M1721 2326 c-10 -12 -8 -17 7 -25 26 -14 47 6 27 25 -17 17 -20 17
-34 0z"/>
<path d="M1786 2321 c-7 -11 18 -33 27 -24 4 3 7 12 7 20 0 15 -26 18 -34 4z"/>
<path d="M1867 2323 c-12 -11 -8 -23 8 -23 8 0 15 7 15 15 0 16 -12 20 -23 8z"/>
<path d="M1722 2251 c-10 -6 -10 -10 3 -21 18 -15 42 0 31 19 -8 13 -16 14
-34 2z"/>
<path d="M1795 2249 c-10 -15 1 -23 20 -15 9 3 13 10 10 16 -8 13 -22 13 -30
-1z"/>
<path d="M1865 2249 c-10 -15 1 -23 20 -15 9 3 13 10 10 16 -8 13 -22 13 -30
-1z"/>
<path d="M1940 2245 c0 -8 5 -15 10 -15 6 0 10 7 10 15 0 8 -4 15 -10 15 -5 0
-10 -7 -10 -15z"/>
<path d="M1724 2179 c-8 -14 11 -33 25 -25 11 7 4 36 -9 36 -5 0 -12 -5 -16
-11z"/>
<path d="M1795 2180 c-4 -6 -3 -16 3 -22 6 -6 12 -6 17 2 4 6 3 16 -3 22 -6 6
-12 6 -17 -2z"/>
<path d="M1870 2170 c0 -5 5 -10 10 -10 6 0 10 5 10 10 0 6 -4 10 -10 10 -5 0
-10 -4 -10 -10z"/>
<path d="M1940 2170 c0 -5 5 -10 10 -10 6 0 10 5 10 10 0 6 -4 10 -10 10 -5 0
-10 -4 -10 -10z"/>
<path d="M1800 2106 c0 -9 5 -16 10 -16 6 0 10 4 10 9 0 6 -4 13 -10 16 -5 3
-10 -1 -10 -9z"/>
<path d="M1866 2102 c-3 -6 -1 -14 5 -17 15 -10 25 3 12 16 -7 7 -13 7 -17 1z"/>
<path d="M1940 2089 c0 -5 5 -7 10 -4 6 3 10 8 10 11 0 2 -4 4 -10 4 -5 0 -10
-5 -10 -11z"/>
<path d="M1796 2043 c-11 -11 -6 -23 9 -23 8 0 15 4 15 9 0 13 -16 22 -24 14z"/>
<path d="M1657 1984 c-4 -4 -4 -10 -1 -15 6 -10 34 0 34 12 0 10 -24 12 -33 3z"/>
<path d="M1730 1980 c0 -5 5 -10 11 -10 5 0 7 5 4 10 -3 6 -8 10 -11 10 -2 0
-4 -4 -4 -10z"/>
<path d="M1656 1924 c-8 -22 -8 -24 8 -24 21 0 28 16 12 29 -11 9 -15 8 -20
-5z"/>
<path d="M1730 1915 c0 -9 5 -15 11 -13 6 2 11 8 11 13 0 5 -5 11 -11 13 -6 2
-11 -4 -11 -13z"/>
<path d="M1800 1914 c0 -8 5 -12 10 -9 6 3 10 10 10 16 0 5 -4 9 -10 9 -5 0
-10 -7 -10 -16z"/>
<path d="M1870 1914 c0 -8 5 -12 10 -9 6 3 10 10 10 16 0 5 -4 9 -10 9 -5 0
-10 -7 -10 -16z"/>
<path d="M1721 1856 c-10 -12 -8 -16 9 -21 28 -9 38 2 19 21 -14 13 -17 13
-28 0z"/>
<path d="M1795 1851 c-6 -11 9 -23 19 -14 9 9 7 23 -3 23 -6 0 -12 -4 -16 -9z"/>
<path d="M1867 1854 c-8 -8 1 -24 14 -24 5 0 9 7 9 15 0 15 -12 20 -23 9z"/>
<path d="M1729 1795 c-4 -44 -3 -107 1 -110 3 -2 12 0 19 4 10 7 10 12 0 29
-10 17 -10 23 1 37 11 14 11 19 -3 33 -10 9 -17 12 -18 7z"/>
<path d="M1796 1783 c-11 -11 -6 -23 9 -23 8 0 15 4 15 9 0 13 -16 22 -24 14z"/>
<path d="M1866 1783 c-11 -11 -6 -23 9 -23 8 0 15 4 15 9 0 13 -16 22 -24 14z"/>
<path d="M1940 1770 c0 -5 5 -10 10 -10 6 0 10 5 10 10 0 6 -4 10 -10 10 -5 0
-10 -4 -10 -10z"/>
<path d="M1795 1710 c-4 -6 -3 -16 3 -22 6 -6 12 -6 17 2 4 6 3 16 -3 22 -6 6
-12 6 -17 -2z"/>
<path d="M1870 1706 c0 -9 5 -16 10 -16 6 0 10 4 10 9 0 6 -4 13 -10 16 -5 3
-10 -1 -10 -9z"/>
<path d="M1940 1706 c0 -9 5 -16 10 -16 6 0 10 4 10 9 0 6 -4 13 -10 16 -5 3
-10 -1 -10 -9z"/>
<path d="M1727 1650 c-6 -25 -2 -40 13 -40 15 0 19 28 6 46 -12 16 -13 15 -19
-6z"/>
<path d="M1795 1640 c-4 -6 -3 -16 3 -22 6 -6 12 -6 17 2 4 6 3 16 -3 22 -6 6
-12 6 -17 -2z"/>
<path d="M1865 1640 c-9 -15 -1 -23 21 -18 15 3 16 4 1 16 -11 9 -17 10 -22 2z"/>
<path d="M1726 1585 c-10 -26 6 -46 25 -32 14 11 14 14 -1 30 -16 16 -18 16
-24 2z"/>
<path d="M1794 1575 c-9 -23 10 -40 25 -22 9 11 8 17 -4 27 -12 10 -16 9 -21
-5z"/>
<path d="M1657 1513 c-15 -17 -15 -19 3 -30 15 -10 19 -9 24 3 3 9 2 22 -2 30
-7 13 -11 12 -25 -3z"/>
</g>
</svg>
